<svg xmlns="http://www.w3.org/2000/svg" viewBox="0 0 120 120" width="120" height="120">
  <!-- Wooden Farm Fence Obstacle -->
  <!-- Shadow -->
  <ellipse cx="60" cy="110" rx="50" ry="10" fill="rgba(0,0,0,0.2)"/>

  <!-- Left Post -->
  <rect x="15" y="30" width="18" height="75" rx="3" fill="#B45309" stroke="#78350F" stroke-width="3"/>
  <path d="M 15 30 L 24 15 L 33 30 Z" fill="#D97706" stroke="#78350F" stroke-width="3"/>

  <!-- Right Post -->
  <rect x="87" y="30" width="18" height="75" rx="3" fill="#B45309" stroke="#78350F" stroke-width="3"/>
  <path d="M 87 30 L 96 15 L 105 30 Z" fill="#D97706" stroke="#78350F" stroke-width="3"/>

  <!-- Horizontal Planks with Hazard Warning Stripes -->
  <rect x="10" y="40" width="100" height="20" rx="4" fill="#EAB308" stroke="#78350F" stroke-width="3"/>
  <path d="M 25 40 L 15 60 M 45 40 L 35 60 M 65 40 L 55 60 M 85 40 L 75 60 M 105 40 L 95 60" stroke="#1E293B" stroke-width="8" stroke-linecap="butt"/>

  <rect x="10" y="70" width="100" height="20" rx="4" fill="#EAB308" stroke="#78350F" stroke-width="3"/>
  <path d="M 25 70 L 15 90 M 45 70 L 35 90 M 65 70 L 55 90 M 85 70 L 75 90 M 105 70 L 95 90" stroke="#1E293B" stroke-width="8" stroke-linecap="butt"/>
</svg>
