<svg xmlns="http://www.w3.org/2000/svg" viewBox="0 0 400 400" width="400" height="400">
  <rect width="400" height="400" fill="#16A34A"/>
  <rect width="400" height="400" fill="url(#rGrad2)"/>
  <defs>
    <linearGradient id="rGrad2" x1="0" y1="0" x2="1" y2="1">
      <stop offset="0%" stop-color="#86EFAC"/>
      <stop offset="100%" stop-color="#15803D"/>
    </linearGradient>
  </defs>

  <!-- Sunflower -->
  <g transform="translate(240, 120)">
    <circle cx="0" cy="0" r="14" fill="#F59E0B"/>
    <circle cx="-14" cy="0" r="9" fill="#FBBF24"/>
    <circle cx="14" cy="0" r="9" fill="#FBBF24"/>
    <circle cx="0" cy="-14" r="9" fill="#FBBF24"/>
    <circle cx="0" cy="14" r="9" fill="#FBBF24"/>
    <circle cx="-10" cy="-10" r="9" fill="#FBBF24"/>
    <circle cx="10" cy="10" r="9" fill="#FBBF24"/>
    <circle cx="-10" cy="10" r="9" fill="#FBBF24"/>
    <circle cx="10" cy="-10" r="9" fill="#FBBF24"/>
    <circle cx="0" cy="0" r="10" fill="#78350F"/>
  </g>

  <!-- Blue Wildflowers -->
  <g transform="translate(100, 260)">
    <circle cx="0" cy="0" r="10" fill="#3B82F6"/>
    <circle cx="-9" cy="0" r="7" fill="#60A5FA"/>
    <circle cx="9" cy="0" r="7" fill="#60A5FA"/>
    <circle cx="0" cy="-9" r="7" fill="#60A5FA"/>
    <circle cx="0" cy="9" r="7" fill="#60A5FA"/>
    <circle cx="0" cy="0" r="6" fill="#FEF08A"/>
  </g>
</svg>
