<?xml version="1.0" encoding="utf-8"?>
<!-- Generator: Adobe Illustrator 27.6.1, SVG Export Plug-In . SVG Version: 6.00 Build 0)  -->
<svg version="1.1" id="Layer_1" xmlns="http://www.w3.org/2000/svg" xmlns:xlink="http://www.w3.org/1999/xlink" x="0px" y="0px"
	 viewBox="0 0 512 512" style="enable-background:new 0 0 512 512;" xml:space="preserve">
<style type="text/css">
	.st0{fill:url(#SVGID_1_);}
	.st1{fill:#CF554D;}
	.st2{display:none;fill:#FFFFFF;enable-background:new    ;}
	.st3{font-family:'ArialMT';}
	.st4{font-size:200px;}
	.st5{fill:#FFFFFF;}
	.st6{fill:#2DB34A;}
	.st7{fill:url(#SVGID_00000133526845643307921120000008357285364607513250_);}
	.st8{fill:none;stroke:#FFFFFF;stroke-width:31;stroke-miterlimit:10;}
	.st9{font-family:'SomeTimeLater';}
	.st10{font-size:350.2683px;}
	.st11{display:none;}
	.st12{display:inline;}
	.st13{fill:url(#SVGID_00000101794093521721600490000003543828346911264149_);}
	.st14{display:none;fill:#F1635A;}
</style>
<g>
	<linearGradient id="SVGID_1_" gradientUnits="userSpaceOnUse" x1="100.4254" y1="201.6082" x2="583.7383" y2="370.5836">
		<stop  offset="0" style="stop-color:#F1635A"/>
		<stop  offset="0.4078" style="stop-color:#CF554D"/>
		<stop  offset="1" style="stop-color:#B14741"/>
	</linearGradient>
	<path class="st0" d="M100,0h312c55.2,0,100,44.8,100,100v312c0,55.2-44.8,100-100,100H100C44.8,512,0,467.2,0,412V100
		C0,44.8,44.8,0,100,0z"/>
</g>
<path class="st1" d="M1288.8,0h312c55.2,0,100,44.8,100,100v312c0,55.2-44.8,100-100,100h-312c-55.2,0-100-44.8-100-100V100
	C1188.8,44.8,1233.6,0,1288.8,0z"/>
<text transform="matrix(1 0 0 1 220.3555 256)" class="st2 st3 st4">؟</text>
<g>
	<path d="M-1094.8-387.1c-7.9,0-16.2-4.1-24.7-12.3c-3.3-3-13.6-14.3-31.1-33.9c-17.2-19.3-33.7-36.2-49.4-50.5l-0.3,15.6
		c0,32.7,2.9,55.8,8.6,69.1c-12.5,6.1-25,9.2-37.6,9.2c-9.5,0-16.2-2.2-19.9-6.5c-3.8-4.4-5.6-11.7-5.6-22.2c0-3.7,0.6-16,1.8-37
		c1.1-21.1,1.6-40.3,1.6-57.5c0-35.6-2.8-36.4-8.3-49.6c13.1-5.7,25.3-8.6,36.7-8.6c9.8,0,16.7,1.9,20.7,5.8
		c3.9,3.8,5.8,19.8,5.8,19.8s1.4,14.9-3.4,40.1c46.2-42.4,72.3-72.8,78.3-91.3c25.4,6.8,38.1,16.3,38.1,28.4c0,6-5.7,14.9-17.2,26.5
		c-7.4,7.5-23.8,22.3-49.2,44.3c8.8,8,19.2,17.8,31.2,29.3l23.9,22.7c14.7,13.4,25.4,20.2,32.3,20.5
		C-1067.9-399.8-1078.7-387.1-1094.8-387.1z"/>
</g>
<text transform="matrix(1 0 0 1 -1228.0177 -30.6731)" style="font-family:'AraJozoor-Regular'; font-size:304.4713px;">K</text>
<path d="M-1276.1,239.7l0.3-15.6c0.1,0.1-0.1-18.3,0-21.8c2.3-45,3.4-66.2,3.4-63.6c0-9.4-1.9-16-5.8-19.8c-4-3.9-10.8-5.8-20.7-5.8
	c-11.4,0-23.6,2.9-36.7,8.6c5.5,13.2,8.3,37.6,8.3,73.2c0,17.2-0.6,36.4-1.6,57.5c-1.2,21-1.8,33.4-1.8,37c0,10.4,1.9,17.8,5.7,22.2
	c3.8,4.4,10.4,6.5,19.9,6.5c12.6,0,25.1-3.1,37.6-9.2C-1273.2,295.4-1276.1,272.4-1276.1,239.7z"/>
<text transform="matrix(1 0 0 1 -1009.9287 276.7504)" style="font-family:'AraJozoor-Regular'; font-size:503.7637px;">خ</text>
<g>
	
		<image style="overflow:visible;opacity:0.64;" width="340" height="466" xlink:href="431CE329.png"  transform="matrix(1 0 0 1 1193.757 31.1445)">
	</image>
	<g>
		<g>
			<path class="st5" d="M1483.7,268.4c-5.9,11-13.3,18-22.1,21.2c-7.9,3-22.5,4.4-43.8,4.4h-55.6c-23.5,0.2-41.7,5.1-54.6,14.8
				c-12.3,9.5-18.4,22.4-18.4,38.6c0,16.2,5.5,29.4,16.5,39.6c11,10.3,25.2,15.5,42.6,15.5c11.6,0,22.3-2.8,32-8.4
				c9.3,15.3,14,27.1,14,35.4c0,16.6-15.2,24.8-45.5,24.8c-36.2,0-66.8-11.1-91.8-33.2c-25.4-22.1-38.1-49.6-38.1-82.4
				c0-26.1,8.8-47.9,26.3-65.4c17.5-17.5,41.4-28.4,71.6-32.5h65.7c-15.4-5.4-39.8-18.7-73.1-39.8c-37.2-23.3-59-40.7-65.2-52.4
				c-4.4-8.5-5.2-17.3-2.2-26.3c3.3-10,9.7-18.6,19.2-25.8c9.7-7.4,19.8-11.3,30.5-11.8c0,10,8.1,23.3,24.4,39.8
				c15.3,15.9,35.1,32,59.5,48.2c55.8,37.2,94,51.7,114.6,43.5C1492,239.6,1489.9,257,1483.7,268.4z M1393.6,105.3
				c-4.9-4.9-7.4-11.2-7.4-18.9c0-8.5,3-15.7,9.1-21.6c6.1-5.9,13.4-8.9,22.1-8.9c7.9,0,14.4,2.5,19.7,7.4
				c5.1,4.8,7.6,10.8,7.6,18.2c0,8.7-3,16.1-9.1,22.1c-6.2,5.9-13.9,8.9-23.1,8.9C1404.7,112.5,1398.4,110.1,1393.6,105.3z"/>
		</g>
	</g>
</g>
<g>
	<path d="M-1143.7,108.4c-4.2-4-9.5-5.9-15.9-5.9c-7,0-13,2.4-17.8,7.1c-4.9,4.8-7.3,10.6-7.3,17.5c0,6.2,2,11.3,5.9,15.3
		c3.8,3.8,8.9,5.7,15.3,5.7c7.4,0,13.6-2.4,18.6-7.1c4.9-4.9,7.3-10.8,7.3-17.8C-1137.6,117.1-1139.6,112.2-1143.7,108.4z
		 M-1180.6,192.7h-38.5c-17.7,2.4-31.7,8.8-42,19c-10.3,10.3-15.4,23.1-15.4,38.4c0,19.2,7.4,35.4,22.4,48.3
		c14.6,13,32.6,19.5,53.8,19.5c17.8,0,26.7-4.9,26.7-14.6c0-4.9-2.7-11.8-8.2-20.8c-5.7,3.3-11.9,4.9-18.8,4.9
		c-10.2,0-18.5-3-25-9.1c-6.4-6-9.7-13.7-9.7-23.2c0-9.5,3.6-17.1,10.8-22.7c7.6-5.7,18.3-8.6,32-8.6h32.6c12.5,0,21.1-0.9,25.7-2.6
		c2.6-0.9,5-2.4,7.2-4.6C-1153.7,208.2-1180.6,192.7-1180.6,192.7z"/>
	<path d="M-1121.2,208.9c-1.7,3.2-3.6,5.8-5.8,7.8c-26.8-8.6-53.7-24-53.7-24c-9-3.2-23.3-11-42.9-23.4
		c-21.8-13.7-34.6-23.9-38.2-30.7c-2.6-5-3-10.1-1.3-15.4c1.9-5.9,5.7-10.9,11.3-15.1c5.7-4.3,11.6-6.6,17.9-6.9
		c0,5.9,4.8,13.7,14.3,23.4c8.9,9.3,20.6,18.8,34.9,28.3c32.7,21.8,55.1,30.4,67.2,25.5C-1116.3,192-1117.5,202.2-1121.2,208.9z"/>
</g>
<path d="M-650-320.5l0.5-30.5c0.1,0.1-0.1-35.7,0-42.6c4-87.8,6-129.2,6-124.2c0-18.4-3.4-31.2-10.2-38.6
	c-7-7.6-19.1-11.3-36.4-11.3c-20.1,0-43.4,4.8-60.5,21.9c9.8,25.7,10.6,68.3,10.6,137.7c0,33.6-1,71.1-2.9,112.3
	c-2.1,41-3.1,65.1-3.1,72.3c0,20.3,3.3,34.7,9.9,43.2c6.6,8.5,18.3,12.8,35,12.8c22.1,0,44.2-6,66.2-18
	C-644.9-211.7-650-256.7-650-320.5z"/>
<g>
	<path d="M-1080.2-574.1c-0.8,7.3-3.3,12.7-7.5,16.3c-3.7,3.3-19.7,10.6-30.2,21.1l-21.9,8.7c-13.9-0.8-9,12.3-14,20.4
		c-4.7,7.8-23.7-22.7-8.1-31.4l20.4-28.2c-9.6,0.4-25.7-1.6-48.5-5.9c-25.3-4.6-41-9.5-46.9-14.5c-4.3-3.7-6.6-8.3-6.9-13.9
		c-0.4-6.2,1.3-12.2,4.9-18.2c3.7-6.1,8.4-10.5,14.1-13c2.2,5.5,9.5,10.9,21.9,16.5c11.8,5.4,26.1,9.9,42.9,13.4
		c38.5,8.2,62.4,7.9,71.9-1C-1081.8-591.6-1079.2-581.7-1080.2-574.1z M-1164.5-643.5c-3.7-1.6-6.5-4.5-8.1-8.7
		c-1.8-4.6-1.7-9.2,0.3-13.8c2-4.5,5.4-7.7,10.2-9.6c4.3-1.7,8.4-1.8,12.3-0.2c3.8,1.5,6.5,4.3,8.1,8.3c1.9,4.7,1.8,9.4-0.2,14
		c-2.1,4.6-5.7,7.8-10.7,9.8C-1156.9-642-1160.9-642-1164.5-643.5z"/>
</g>
<image style="overflow:visible;" width="3342" height="3342" xlink:href="../—Pngtree—brain logo vector_5182872.png"  transform="matrix(0.24 0 0 0.24 -235.9973 -970.5237)">
</image>
<path class="st6" d="M-437.3-446.5c-0.8,8.5-0.9,14.5-1.9,21.6c-66.5,6.2-143-1.5-143-1.5c-22.7,1.5-61.2-2.2-115.4-11.1
	c-60.4-9.5-97.8-20-112.2-31.5c-10.3-8.5-16.1-19.3-17.2-32.5c-1.3-14.6,2.2-29.1,10.5-43.6c8.4-14.8,19.2-25.4,32.6-31.8
	c5.5,12.8,23.2,25.4,53,37.7c28.3,12,62.5,21.8,102.7,29.2c91.8,17.2,148.7,14.9,170.7-7C-442.4-488.1-435.6-464.6-437.3-446.5z"/>
<g>
	<path d="M-527.2-596.4c-7.2-6.7-16.2-10.1-27-10.1c-11.9,0-22,4.1-30.4,12.1c-8.3,8.1-12.5,18-12.5,29.7c0,10.6,3.4,19.2,10.1,26
		c6.5,6.5,15.2,9.8,26,9.8c12.6,0,23.1-4,31.7-12.1c8.3-8.3,12.5-18.4,12.5-30.4C-516.7-581.5-520.2-589.9-527.2-596.4z"/>
</g>
<path d="M-538.7-428.8L-599-403c-26.1,15.6-43.8,34.9-53,57.9c-9.2,23-8.7,46.5,1.5,70.4c12.9,30.1,35.3,50.4,67.3,60.7
	c31.6,10.6,64,8.7,97.3-5.5c27.9-11.9,38.5-25.5,32-40.7c-3.3-7.7-12.2-16.7-26.8-27c-6.7,8.9-15.4,15.7-26.1,20.2
	c-15.9,6.8-31,7.6-45.2,2.4c-14.1-5-24.3-15-30.7-29.9c-6.4-14.9-5.8-29.1,1.8-42.7c8.1-14,22.9-25.6,44.4-35l51-21.8
	c19.6-8.4,32.4-15.5,38.5-21.2c3.5-3.2,6.3-7.2,8.3-12C-486.3-422.7-538.7-428.8-538.7-428.8z"/>
<image style="overflow:visible;" width="354" height="280" xlink:href="431CE329.jpg"  transform="matrix(1 0 0 1 722.5714 -281.2857)">
</image>
<g>
	<g>
		
			<image style="overflow:visible;opacity:0.33;" width="422" height="509" xlink:href="431CE32F.png"  transform="matrix(1 0 0 1 -538.047 -0.1498)">
		</image>
		<g>
			
				<linearGradient id="SVGID_00000022538663525580753860000003713504542182146190_" gradientUnits="userSpaceOnUse" x1="-548.2714" y1="132.2996" x2="-224.8161" y2="251.8423">
				<stop  offset="0" style="stop-color:#FACC47"/>
				<stop  offset="1" style="stop-color:#F79A33"/>
			</linearGradient>
			<path style="fill:url(#SVGID_00000022538663525580753860000003713504542182146190_);" d="M-324.4,446.1
				c-46.1-23.6-62.5-85.7-62.7-86.4c-1.3-5.1-5.8-8.7-11-8.8l-85.9-2.7c-32-4.1-36.8-26.9-37.4-31.2V85.9c0-11.6,4.2-21.2,12.6-28.3
				c5.3-4.6,10.8-6.9,13-7.7l281.9-23.9c19.4,1.3,27.3,22.8,29,28.2l4.7,278.5c-1.4,12-6.9,20.3-16.9,25.3
				c-6.9,3.5-13.7,4.2-15.1,4.3l-94.6-3.3c-0.1,0-0.3,0-0.4,0c-5.2,0-9.9,3.5-11.3,8.6C-328.9,404.4-328.4,429.5-324.4,446.1z"/>
			<path class="st5" d="M-213.9,37.7c3.3,0.4,7.5,1.9,12,8.3c2.7,3.8,4.4,7.8,5.3,10.2L-192,332c-1,7.2-3.9,11.9-9.5,15
				c-4.6,2.6-9.4,3.3-11.1,3.5l-93.8-3.3c-0.3,0-0.6,0-0.8,0c-10.5,0-19.7,7-22.6,17.1c-5.9,21.1-8.9,40.2-8.9,57.1
				c-6.5-6.2-12.5-13.8-18-22.6c-13.1-20.8-18.6-41.1-18.9-42c-2.5-10.2-11.5-17.3-22-17.6l-85.3-2.6c-10.3-1.4-17.8-5.2-22.3-11.4
				c-2.8-3.8-3.9-7.7-4.3-9.3v-230c0-8.1,2.5-14.1,8-19c3.2-2.9,6.6-4.6,8.5-5.5L-213.9,37.7 M-214.1,14.1l-284.2,24.1
				c0,0-34.9,10.1-34.9,47.6v231.9c0,0,3.4,36.9,48.3,42.2l86.5,2.7c0,0,23.5,92.5,97.9,103.2c0,0-28.1-18.8-6.7-95.2l95.2,3.4
				c0,0,39.5-1.3,43.6-40.9l-4.7-280.8C-173.2,52.3-182.6,15.5-214.1,14.1L-214.1,14.1z"/>
		</g>
	</g>
	<g>
		
			<image style="overflow:visible;opacity:0.33;" width="182" height="435" xlink:href="431CE32A.png"  transform="matrix(1 0 0 1 -436.1498 5.8502)">
		</image>
		<g>
			
				<text transform="matrix(1 0 0 1 -486.007 303.4473)" class="st5" style="font-family:'AraJozoor-Regular'; font-size:323.8119px;">?</text>
		</g>
	</g>
</g>
<path class="st1" d="M948.4,288.4c0,77.6-62.9,140.6-140.6,140.6s-140.6-62.9-140.6-140.6c0-38.8,15.7-74,41.2-99.4
	s60.6-41.2,99.4-41.2c38.8,0,74,15.7,99.4,41.2C932.7,214.5,948.4,249.6,948.4,288.4z"/>
<circle class="st5" cx="1354.8" cy="-82.7" r="24"/>
<circle class="st5" cx="807.9" cy="98.1" r="27.4"/>
<g>
	<path class="st8" d="M708.5,189c25.4-25.4,60.6-41.2,99.4-41.2c89.7,0,107.4,98.9,71.1,140.6"/>
</g>
<g>
	
		<image style="overflow:visible;opacity:0.33;" width="227" height="469" xlink:href="431CE32B.png"  transform="matrix(1 0 0 1 491.5502 -335.4498)">
	</image>
	<g>
		<text transform="matrix(-1 0 0 1 793.6152 -12.9686)" class="st5 st9 st10">?</text>
	</g>
</g>
<g>
	<path class="st5" d="M789.6,268.2c-5.6,5.4-8.4,12.5-8.4,21.5c0,7.4,1.3,13.5,3.8,18.4c2.6,4.8,6.9,9.4,13.1,13.6
		c13,9.1,22.1,18.6,27.3,28.6c5.2,9.9,7.6,22.1,7.3,36.6h-41c0.3-8.4-0.6-15.2-2.9-20.4c-2.3-5.2-6.4-10-12.5-14.5
		c-15.2-11.4-26-21.9-32.5-31.5c-6.5-9.6-9.7-19.8-9.7-30.8c0-20.4,7-36.6,21-48.6s33-18,57-18c23.8,0,42.6,6.7,56.4,20
		c13.8,13.3,21,31.8,21.7,55.4h-43.8c-0.5-13-3.5-22.6-9.1-28.9c-5.6-6.3-14-9.4-25.3-9.4C802.5,260.3,795.1,263,789.6,268.2z
		 M835.3,453.3h-46.2v-44h46.2V453.3z"/>
</g>
<g class="st11">
	<g class="st12">
		
			<linearGradient id="SVGID_00000124840103613211273850000015009702893696079235_" gradientUnits="userSpaceOnUse" x1="59.98" y1="259.73" x2="435.86" y2="259.73">
			<stop  offset="0" style="stop-color:#FACC47"/>
			<stop  offset="1" style="stop-color:#F79A33"/>
		</linearGradient>
		<path style="fill:url(#SVGID_00000124840103613211273850000015009702893696079235_);" d="M435.9,256
			c0,99.3-80.5,179.9-179.9,179.9c-31.1,0-60.3-7.9-85.8-21.8L60,443.3l42.5-93.6c-16.7-27.3-26.3-59.4-26.3-93.8
			c0-49.7,20.1-94.6,52.7-127.2S206.3,76.1,256,76.1s94.6,20.1,127.2,52.7S435.9,206.3,435.9,256z"/>
	</g>
</g>
<g>
	<g>
		
			<image style="overflow:visible;opacity:0.6;" width="288" height="401" xlink:href="431CE326.png"  transform="matrix(1 0 0 1 113 105)">
		</image>
		<g>
			<g>
				<g>
					<g>
						<path class="st5" d="M356.2,308.3c-0.1,0.1-0.2,0.2-0.2,0.3l0,0c0,0-0.1,0.1-0.1,0.1l-0.1-0.1l0,0l-35.3-30.7
							c6.7-7.7,11.1-18.3,13-29.8c2.5-15.5,0.5-33-6.4-48c-8.5-18.6-27.2-40.7-68.6-40.7c-35.8,0-69.4,13.9-94.7,39.2l-33.2-33.2
							c23.6-23.6,52.6-39.9,84.3-47.7c11.2,11.2,26.6,18.2,43.7,18.2c16.5,0,31.4-6.5,42.5-17c30.8,10,55,31.3,68.9,61.7
							C389.5,223.7,383.9,276.1,356.2,308.3z"/>
					</g>
				</g>
				<g>
					<path class="st5" d="M243.6,274.5c-6.3,6-9.4,14.1-9.4,24.1c0,8.3,1.4,15.2,4.3,20.6c2.9,5.4,7.8,10.5,14.7,15.2
						c14.6,10.2,24.7,20.9,30.6,32c5.8,11.1,8.5,24.8,8.1,41h-46c0.4-9.5-0.7-17.1-3.3-22.9c-2.6-5.8-7.2-11.2-14-16.2
						c-17-12.8-29.1-24.5-36.4-35.3c-7.3-10.7-10.9-22.2-10.9-34.5c0-22.9,7.9-41,23.6-54.4c15.7-13.4,37-20.1,63.8-20.1
						c26.7,0,47.8,7.5,63.2,22.4c15.5,14.9,23.6,35.6,24.3,62.1h-49c-0.5-14.6-3.9-25.4-10.2-32.4c-6.3-7-15.7-10.5-28.4-10.5
						C258.1,265.7,249.7,268.6,243.6,274.5z M294.7,481.8H243v-49.2h51.7V481.8z"/>
				</g>
			</g>
		</g>
	</g>
	<g>
		
			<image style="overflow:visible;opacity:0.6;" width="125" height="125" xlink:href="431CE327.png"  transform="matrix(1 0 0 1 197 15)">
		</image>
		<g>
			<g>
				<circle class="st5" cx="258.5" cy="74.1" r="43.9"/>
			</g>
		</g>
	</g>
</g>
<path class="st14" d="M259,1.8c-30.2,0-54.7,24.5-54.7,54.7c0,16.7,7.5,31.6,19.3,41.6c11.5-2.3,23.4-3.4,35.4-3.4
	c12.2,0,23.7,1.4,34.6,4.2c12.3-10,20.1-25.3,20.1-42.3C313.7,26.3,289.2,1.8,259,1.8z M259,89.6c-18.3,0-33.1-14.8-33.1-33.1
	c0-18.3,14.8-33.1,33.1-33.1c18.3,0,33.1,14.8,33.1,33.1C292.1,74.8,277.3,89.6,259,89.6z"/>
<path class="st14" d="M293.6,98.8c-9.4,7.7-21.5,12.3-34.6,12.3c-13.5,0-25.9-4.9-35.4-13c11.5-2.3,23.4-3.4,35.4-3.4
	C271.2,94.7,282.7,96.1,293.6,98.8z"/>
</svg>
