<?xml version="1.0" encoding="utf-8"?>
<!-- Generator: Adobe Illustrator 27.6.1, SVG Export Plug-In . SVG Version: 6.00 Build 0)  -->
<svg version="1.1" id="Layer_1" xmlns="http://www.w3.org/2000/svg" xmlns:xlink="http://www.w3.org/1999/xlink" x="0px" y="0px"
	 viewBox="0 0 512 512" style="enable-background:new 0 0 512 512;" xml:space="preserve">
<style type="text/css">
	.st0{fill:url(#SVGID_1_);}
	.st1{opacity:0.3;clip-path:url(#SVGID_00000043454947808554069150000016541764383178746812_);}
	.st2{fill:none;stroke:#923631;stroke-width:2;stroke-miterlimit:10;}
	.st3{display:none;}
	.st4{display:inline;fill:#B54640;}
	.st5{display:inline;fill:#C75545;}
	.st6{display:none;fill:#FFFFFF;enable-background:new    ;}
	.st7{font-family:'ArialMT';}
	.st8{font-size:200px;}
	.st9{fill:url(#SVGID_00000040533108165221295240000018310797797457560973_);}
	.st10{fill:#FFFFFF;}
	.st11{fill:#CF554D;}
	.st12{fill:none;stroke:#FFFFFF;stroke-width:31;stroke-miterlimit:10;}
	.st13{fill:url(#SVGID_00000156566394990804040990000015588681529499196583_);}
	.st14{display:inline;}
	.st15{fill:url(#SVGID_00000157276180834276544150000018403360027518656422_);}
	.st16{display:inline;fill:url(#SVGID_00000108997363807218178100000004107663687774750378_);}
	.st17{display:inline;fill:#939699;}
	.st18{display:inline;fill:#B3B5B8;}
	.st19{display:none;fill:#F1635A;}
</style>
<g>
	<linearGradient id="SVGID_1_" gradientUnits="userSpaceOnUse" x1="200.228" y1="236.501" x2="683.5408" y2="405.4764">
		<stop  offset="0" style="stop-color:#F1635A"/>
		<stop  offset="0.4078" style="stop-color:#CF554D"/>
		<stop  offset="1" style="stop-color:#B14741"/>
	</linearGradient>
	<path class="st0" d="M100,0h312c55.2,0,100,44.8,100,100v312c0,55.2-44.8,100-100,100H100C44.8,512,0,467.2,0,412V100
		C0,44.8,44.8,0,100,0z"/>
</g>
<g>
	<defs>
		<path id="SVGID_00000096057950668944952990000000784158383210224786_" d="M100,0h312c55.2,0,100,44.8,100,100v312
			c0,55.2-44.8,100-100,100H100C44.8,512,0,467.2,0,412V100C0,44.8,44.8,0,100,0z"/>
	</defs>
	<clipPath id="SVGID_00000075151825412276826570000012613351325338335649_">
		<use xlink:href="#SVGID_00000096057950668944952990000000784158383210224786_"  style="overflow:visible;"/>
	</clipPath>
	<g style="opacity:0.3;clip-path:url(#SVGID_00000075151825412276826570000012613351325338335649_);">
		
			<image style="overflow:visible;" width="1079" height="1079" xlink:href="431CE329.png"  transform="matrix(1 0 0 1 -283.4646 -283.4646)">
		</image>
	</g>
</g>
<path class="st2" d="M100,499c-48,0-87-39-87-87V100c0-48,39-87,87-87h312c48,0,87,39,87,87v312c0,48-39,87-87,87H100z"/>
<g class="st3">
	<path class="st4" d="M412,13c48,0,87,39,87,87v312c0,48-39,87-87,87H100c-48,0-87-39-87-87V100c0-48,39-87,87-87H412 M412,0H100
		C44.8,0,0,44.8,0,100v312c0,55.2,44.8,100,100,100h312c55.2,0,100-44.8,100-100V100C512,44.8,467.2,0,412,0L412,0z"/>
</g>
<g class="st3">
	<path class="st5" d="M412,5c52.4,0,95,42.6,95,95v312c0,52.4-42.6,95-95,95H100c-52.4,0-95-42.6-95-95V100C5,47.6,47.6,5,100,5H412
		 M412,0H100C44.8,0,0,44.8,0,100v312c0,55.2,44.8,100,100,100h312c55.2,0,100-44.8,100-100V100C512,44.8,467.2,0,412,0L412,0z"/>
</g>
<text transform="matrix(1 0 0 1 220.3555 256)" class="st6 st7 st8">؟</text>
<image style="overflow:visible;" width="3342" height="3342" xlink:href="../—Pngtree—brain logo vector_5182872.png"  transform="matrix(0.24 0 0 0.24 -235.9973 -970.5237)">
</image>
<image style="overflow:visible;" width="354" height="280" xlink:href="431CE329.jpg"  transform="matrix(1 0 0 1 873.4286 -421.2857)">
</image>
<g>
	<g>
		
			<image style="overflow:visible;opacity:0.33;" width="422" height="509" xlink:href="431CE32F.png"  transform="matrix(1 0 0 1 -538.047 -0.1498)">
		</image>
		<g>
			
				<linearGradient id="SVGID_00000087405782583052149000000005959326245751461273_" gradientUnits="userSpaceOnUse" x1="-548.2714" y1="132.2996" x2="-224.8161" y2="251.8423">
				<stop  offset="0" style="stop-color:#FACC47"/>
				<stop  offset="1" style="stop-color:#F79A33"/>
			</linearGradient>
			<path style="fill:url(#SVGID_00000087405782583052149000000005959326245751461273_);" d="M-324.4,446.1
				c-46.1-23.6-62.5-85.7-62.7-86.4c-1.3-5.1-5.8-8.7-11-8.8l-85.9-2.7c-32-4.1-36.8-26.9-37.4-31.2V85.9c0-11.6,4.2-21.2,12.6-28.3
				c5.3-4.6,10.8-6.9,13-7.7l281.9-23.9c19.4,1.3,27.3,22.8,29,28.2l4.7,278.5c-1.4,12-6.9,20.3-16.9,25.3
				c-6.9,3.5-13.7,4.2-15.1,4.3l-94.6-3.3c-0.1,0-0.3,0-0.4,0c-5.2,0-9.9,3.5-11.3,8.6C-328.9,404.4-328.4,429.5-324.4,446.1z"/>
			<path class="st10" d="M-213.9,37.7c3.3,0.4,7.5,1.9,12,8.3c2.7,3.8,4.4,7.8,5.3,10.2L-192,332c-1,7.2-3.9,11.9-9.5,15
				c-4.6,2.6-9.4,3.3-11.1,3.5l-93.8-3.3c-0.3,0-0.6,0-0.8,0c-10.5,0-19.7,7-22.6,17.1c-5.9,21.1-8.9,40.2-8.9,57.1
				c-6.5-6.2-12.5-13.8-18-22.6c-13.1-20.8-18.6-41.1-18.9-42c-2.5-10.2-11.5-17.3-22-17.6l-85.3-2.6c-10.3-1.4-17.8-5.2-22.3-11.4
				c-2.8-3.8-3.9-7.7-4.3-9.3v-230c0-8.1,2.5-14.1,8-19c3.2-2.9,6.6-4.6,8.5-5.5L-213.9,37.7 M-214.1,14.1l-284.2,24.1
				c0,0-34.9,10.1-34.9,47.6v231.9c0,0,3.4,36.9,48.3,42.2l86.5,2.7c0,0,23.5,92.5,97.9,103.2c0,0-28.1-18.8-6.7-95.2l95.2,3.4
				c0,0,39.5-1.3,43.6-40.9l-4.7-280.8C-173.2,52.3-182.6,15.5-214.1,14.1L-214.1,14.1z"/>
		</g>
	</g>
	<g>
		
			<image style="overflow:visible;opacity:0.33;" width="182" height="435" xlink:href="431CE32A.png"  transform="matrix(1 0 0 1 -436.1498 5.8502)">
		</image>
		<g>
			
				<text transform="matrix(1 0 0 1 -486.007 303.4473)" class="st10" style="font-family:'AraJozoor-Regular'; font-size:323.8119px;">?</text>
		</g>
	</g>
</g>
<path class="st11" d="M948.4,288.4c0,77.6-62.9,140.6-140.6,140.6s-140.6-62.9-140.6-140.6c0-38.8,15.7-74,41.2-99.4
	s60.6-41.2,99.4-41.2c38.8,0,74,15.7,99.4,41.2C932.7,214.5,948.4,249.6,948.4,288.4z"/>
<circle class="st10" cx="807.9" cy="98.1" r="27.4"/>
<g>
	<path class="st12" d="M708.5,189c25.4-25.4,60.6-41.2,99.4-41.2c89.7,0,107.4,98.9,71.1,140.6"/>
</g>
<g>
	
		<image style="overflow:visible;opacity:0.33;" width="227" height="469" xlink:href="431CE32B.png"  transform="matrix(1 0 0 1 713.5502 -851.4498)">
	</image>
	<g>
		
			<text transform="matrix(-1 0 0 1 1015.6309 -528.9335)" class="st10" style="font-family:'SomeTimeLater'; font-size:350.2683px;">?</text>
	</g>
</g>
<g>
	<path class="st10" d="M789.6,268.2c-5.6,5.4-8.4,12.5-8.4,21.5c0,7.4,1.3,13.5,3.8,18.4c2.6,4.8,6.9,9.4,13.1,13.6
		c13,9.1,22.1,18.6,27.3,28.6c5.2,9.9,7.6,22.1,7.3,36.6h-41c0.3-8.4-0.6-15.2-2.9-20.4c-2.3-5.2-6.4-10-12.5-14.5
		c-15.2-11.4-26-21.9-32.5-31.5c-6.5-9.6-9.7-19.8-9.7-30.8c0-20.4,7-36.6,21-48.6s33-18,57-18c23.8,0,42.6,6.7,56.4,20
		c13.8,13.3,21,31.8,21.7,55.4h-43.8c-0.5-13-3.5-22.6-9.1-28.9c-5.6-6.3-14-9.4-25.3-9.4C802.5,260.3,795.1,263,789.6,268.2z
		 M835.3,453.3h-46.2v-44h46.2V453.3z"/>
</g>
<linearGradient id="SVGID_00000004546203275918614640000000213193891999282101_" gradientUnits="userSpaceOnUse" x1="269.5764" y1="111.8505" x2="248.2864" y2="126.0924">
	<stop  offset="0" style="stop-color:#FACC47"/>
	<stop  offset="1" style="stop-color:#F79A33"/>
</linearGradient>
<path style="fill:url(#SVGID_00000004546203275918614640000000213193891999282101_);" d="M266.5,118c-6.5,0-12.7-1.4-18.2-4
	c1.1,0,2.2-0.1,3.4-0.1c11.2,0,21.7-0.2,31.9,0.6C278.3,116.8,272.5,118,266.5,118z"/>
<g class="st3">
	
		<image style="display:inline;overflow:visible;opacity:0.3;" width="389" height="380" xlink:href="431CE326.png"  transform="matrix(1 0 0 1 54 90)">
	</image>
	<g class="st14">
		<g>
			<g>
				
					<linearGradient id="SVGID_00000002352613436065546400000007210276697648746145_" gradientUnits="userSpaceOnUse" x1="39.8422" y1="404.5478" x2="349.6229" y2="191.6588">
					<stop  offset="0" style="stop-color:#FACC47"/>
					<stop  offset="1" style="stop-color:#F79A33"/>
				</linearGradient>
				<path style="fill:url(#SVGID_00000002352613436065546400000007210276697648746145_);" d="M435.9,256
					c0,99.3-80.5,179.9-179.9,179.9c-31.1,0-60.3-7.9-85.8-21.8L60,443.3l42.5-93.6c-16.7-27.3-26.3-59.4-26.3-93.8
					c0-49.7,20.1-94.6,52.7-127.2S206.3,76.1,256,76.1s94.6,20.1,127.2,52.7S435.9,206.3,435.9,256z"/>
			</g>
		</g>
	</g>
</g>
<g class="st3">
	
		<linearGradient id="SVGID_00000026153890154877982460000002533436132463941283_" gradientUnits="userSpaceOnUse" x1="180.1388" y1="335.0875" x2="-39.2637" y2="481.8559">
		<stop  offset="0" style="stop-color:#FCD42C"/>
		<stop  offset="1" style="stop-color:#F79A33"/>
	</linearGradient>
	<path style="display:inline;fill:url(#SVGID_00000026153890154877982460000002533436132463941283_);" d="M396.7,261.2
		c0,47.8-23,90.2-58.5,116.8c0,0,0,0,0,0c-17.1,15.9-43.9,19.8-46.5,54.5c-0.2,1.8-0.2,3.7-0.2,5.7v24.2h-81.8v-24.2
		c0-40.1-28.8-43.5-46.8-60.2c0,0,0,0,0,0c-35.5-26.6-58.4-69-58.4-116.8c0-40.3,8-70.4,34.5-96.9c7.9-7.9,17.6-15.6,28.3-22.5
		c0,0,0.1-0.1,0.1-0.1c16.7-10.7,36-19.5,55.4-24.1c11.2,11.2,26.6,18.2,43.7,18.2c16.4,0,31.4-6.5,42.5-17c0.4,0.1,0.7,0.2,1.1,0.3
		c7.6,2.3,15.2,5.7,22.9,10.5c9.6,6,19.4,14.4,29.6,25.9c0,0,0,0,0,0C387.4,183.5,396.7,220.9,396.7,261.2z"/>
	<polygon class="st17" points="273.9,511.9 227,511.9 219.4,494.7 281.6,494.7 	"/>
	<rect x="209.6" y="432.5" class="st18" width="81.6" height="62.2"/>
</g>
<g>
	
		<image style="overflow:visible;opacity:0.6;" width="258" height="357" xlink:href="431CE327.png"  transform="matrix(1 0 0 1 134 133)">
	</image>
	<g>
		<g>
			<g>
				<path class="st10" d="M239.7,422.6v46.5h48.8v-46.5H239.7z"/>
				<path class="st10" d="M370.1,305.7h-69.8c-0.5-13.7-3.7-23.9-9.6-30.6c-5.9-6.6-14.8-9.9-26.8-9.9c-10,0-17.9,2.8-23.7,8.3
					c-5.9,5.7-8.9,13.3-8.9,22.8c0,7.8,1.4,14.3,4.1,19.4c2.7,5.1,7.3,9.9,13.8,14.4c13.7,9.6,23.4,19.7,28.8,30.2
					c5.5,10.5,8,23.4,7.7,38.7h-43.4c0.4-8.9-0.7-16.1-3.1-21.6c-2.4-5.5-6.8-10.6-13.2-15.3c-16-12-27.5-23.1-34.3-33.3
					c-6.9-10.1-10.3-21-10.3-32.5c0-21.6,7.4-38.7,22.2-51.3c14.8-12.7,34.9-19,60.2-19c25.2,0,45.1,7,59.6,21.2
					c0.6,0.6,1.1,1.1,1.7,1.7c0-0.1,0-0.3,0.1-0.4c2.4-14.7,0.5-31.1-6-45.3c-8-17.5-25.7-38.4-64.7-38.4c-33.8,0-65.5,13.1-89.4,37
					l-31.4-31.4c8.4-8.4,17.4-15.7,27.1-22.1c0,0,0.1-0.1,0.1-0.1c16-10.5,33.7-18.2,52.3-22.8c0,0,0,0,0,0
					c10.5,10.6,25.1,17.1,41.2,17.1c15.5,0,29.6-6.1,40.1-16c0,0,0,0,0,0c0.3,0.1,0.7,0.2,1,0.3c7.7,2.6,14.9,5.9,21.6,9.9
					c10.7,6.4,20.1,14.6,27.9,24.4c0,0,0,0,0,0c5.6,7,11.8,14.6,16.2,23.1C392.9,245.8,370.1,305.6,370.1,305.7z"/>
			</g>
		</g>
	</g>
</g>
<g>
	
		<image style="overflow:visible;opacity:0.6;" width="96" height="96" xlink:href="431CE339.png"  transform="matrix(1 0 0 1 214 50)">
	</image>
	<g>
		<g>
			<path class="st10" d="M296.1,84.3c0,17.1-10.5,31.9-25.3,38.2c0,0,0,0,0,0c-5,2.1-10.4,3.3-16.1,3.3c-6.1,0-11.9-1.3-17.2-3.7
				c-14.3-6.5-24.2-21-24.2-37.7c0-22.8,18.6-41.4,41.4-41.4C277.5,42.9,296.1,61.5,296.1,84.3z"/>
		</g>
	</g>
</g>
<path class="st19" d="M259,1.8c-30.2,0-54.7,24.5-54.7,54.7c0,16.7,7.5,31.6,19.3,41.6c11.5-2.3,23.4-3.4,35.4-3.4
	c12.2,0,23.7,1.4,34.6,4.2c12.3-10,20.1-25.3,20.1-42.3C313.7,26.3,289.2,1.8,259,1.8z M259,89.6c-18.3,0-33.1-14.8-33.1-33.1
	c0-18.3,14.8-33.1,33.1-33.1c18.3,0,33.1,14.8,33.1,33.1C292.1,74.8,277.3,89.6,259,89.6z"/>
<path class="st19" d="M293.6,98.8c-9.4,7.7-21.5,12.3-34.6,12.3c-13.5,0-25.9-4.9-35.4-13c11.5-2.3,23.4-3.4,35.4-3.4
	C271.2,94.7,282.7,96.1,293.6,98.8z"/>
<g class="st3">
	<g class="st14">
		<path class="st10" d="M363.8,114.3c-4.9-4.9-4.9-12.8,0-17.7l37-37c4.9-4.9,12.8-4.9,17.7,0c4.9,4.9,4.9,12.8,0,17.7l-37,37
			C376.6,119.2,368.7,119.2,363.8,114.3z"/>
	</g>
	<g class="st14">
		<path class="st10" d="M410.2,209.9c-1.2-6.8,3.3-13.3,10.1-14.5l51.5-9.1c6.8-1.2,13.3,3.3,14.5,10.1c1.2,6.8-3.3,13.3-10.1,14.5
			l-51.5,9.1C417.9,221.3,411.4,216.7,410.2,209.9z"/>
	</g>
	<g class="st14">
		<path class="st10" d="M96.6,209.9c-1.2,6.8-7.7,11.3-14.5,10.1L30.6,211c-6.8-1.2-11.3-7.7-10.1-14.5c1.2-6.8,7.7-11.3,14.5-10.1
			l51.5,9.1C93.2,196.6,97.8,203.1,96.6,209.9z"/>
	</g>
	<g class="st14">
		<path class="st10" d="M113.2,340.2c3.5,6,1.4,13.6-4.6,17.1l-45.3,26.2c-6,3.5-13.6,1.4-17.1-4.6c-3.5-6-1.4-13.6,4.6-17.1
			l45.3-26.2C102.1,332.2,109.7,334.2,113.2,340.2z"/>
	</g>
	<g class="st14">
		<path class="st10" d="M392.9,340.2c-3.5,6-1.4,13.6,4.6,17.1l45.3,26.2c6,3.5,13.6,1.4,17.1-4.6c3.5-6,1.4-13.6-4.6-17.1
			l-45.3-26.2C404,332.2,396.3,334.2,392.9,340.2z"/>
	</g>
	<g class="st14">
		<path class="st10" d="M164.2,114.3c-4.9,4.9-12.8,4.9-17.7,0l-37-37c-4.9-4.9-4.9-12.8,0-17.7c4.9-4.9,12.8-4.9,17.7,0l37,37
			C169,101.6,169,109.5,164.2,114.3z"/>
	</g>
</g>
</svg>
