<?xml version="1.0" encoding="utf-8"?>
<!-- Generator: Adobe Illustrator 27.6.1, SVG Export Plug-In . SVG Version: 6.00 Build 0)  -->
<svg version="1.1" id="Layer_1" xmlns="http://www.w3.org/2000/svg" xmlns:xlink="http://www.w3.org/1999/xlink" x="0px" y="0px"
	 viewBox="0 0 512 512" style="enable-background:new 0 0 512 512;" xml:space="preserve">
<style type="text/css">
	.st0{fill:url(#SVGID_1_);}
	
		.st1{opacity:0.5;clip-path:url(#SVGID_00000008847986489963521370000006376950616971423873_);fill:url(#SVGID_00000134946767685181490110000017123957499101136289_);}
	.st2{clip-path:url(#SVGID_00000008847986489963521370000006376950616971423873_);fill:#D9D6FE;}
	.st3{opacity:0.7;clip-path:url(#SVGID_00000008847986489963521370000006376950616971423873_);}
	.st4{display:none;fill:none;stroke:#FFE115;stroke-width:4;stroke-miterlimit:10;}
	.st5{fill:url(#SVGID_00000083079189621421401840000002169129645143366790_);}
	.st6{fill:#FFFFFF;}
	.st7{fill:#CF554D;}
	.st8{fill:none;stroke:#FFFFFF;stroke-width:31;stroke-miterlimit:10;}
	.st9{display:none;}
	.st10{display:inline;}
	.st11{fill:url(#SVGID_00000175294614789012149620000003584899341612385937_);}
	.st12{display:inline;fill:url(#SVGID_00000113354778835555014810000010366727056605430698_);}
	.st13{display:inline;fill:#939699;}
	.st14{display:inline;fill:#B3B5B8;}
	.st15{fill:url(#SVGID_00000045586151287899081300000013776730402044162698_);}
	.st16{opacity:0.3;clip-path:url(#SVGID_00000008836423685163383570000017044385588249179275_);}
	.st17{fill:none;stroke:#923631;stroke-width:2;stroke-miterlimit:10;}
	.st18{fill:url(#SVGID_00000074426993798267813020000000338491860392956593_);}
	.st19{display:inline;fill:url(#SVGID_00000026853606659185292110000004022305336577038013_);}
	.st20{display:inline;opacity:0.3;clip-path:url(#SVGID_00000159450534872335910420000007230914223836557990_);}
	.st21{display:none;fill:none;stroke:#923631;stroke-width:2;stroke-miterlimit:10;}
	.st22{fill:#F1635A;}
	.st23{opacity:0.4;fill:#54798F;}
	.st24{fill:url(#SVGID_00000126286472609840316350000001833976115031869097_);}
</style>
<g>
	<linearGradient id="SVGID_1_" gradientUnits="userSpaceOnUse" x1="27.9788" y1="74.2272" x2="428.3348" y2="393.381">
		<stop  offset="0" style="stop-color:#6CC3B0"/>
		<stop  offset="0.5922" style="stop-color:#8797CB"/>
		<stop  offset="1" style="stop-color:#F1635A"/>
	</linearGradient>
	<path class="st0" d="M100,0h312c55.2,0,100,44.8,100,100v312c0,55.2-44.8,100-100,100H100C44.8,512,0,467.2,0,412V100
		C0,44.8,44.8,0,100,0z"/>
</g>
<g>
	<defs>
		<path id="SVGID_00000124141767772906223410000001681577580441436292_" d="M100,0h312c55.2,0,100,44.8,100,100v312
			c0,55.2-44.8,100-100,100H100C44.8,512,0,467.2,0,412V100C0,44.8,44.8,0,100,0z"/>
	</defs>
	<clipPath id="SVGID_00000164514528055980443450000004560787386417203112_">
		<use xlink:href="#SVGID_00000124141767772906223410000001681577580441436292_"  style="overflow:visible;"/>
	</clipPath>
	
		<linearGradient id="SVGID_00000106144466082127179580000002999732338577128068_" gradientUnits="userSpaceOnUse" x1="155.5024" y1="-0.2688" x2="287.761" y2="431.7766" gradientTransform="matrix(0.9999 1.500000e-02 -1.500000e-02 0.9999 0.7754 -12.5141)">
		<stop  offset="0" style="stop-color:#33A4EF"/>
		<stop  offset="1" style="stop-color:#000000"/>
	</linearGradient>
	
		<path style="opacity:0.5;clip-path:url(#SVGID_00000164514528055980443450000004560787386417203112_);fill:url(#SVGID_00000106144466082127179580000002999732338577128068_);" d="
		M219.5-68c-196,4.9-347.6,179-366,362.9c-9.2,91.4,4.4,198.8,75.9,280.3C-35,615.8,659,399.9,661.1,279.6
		C637.4,88.8,474.3-74.4,219.5-68z"/>
	<path style="clip-path:url(#SVGID_00000164514528055980443450000004560787386417203112_);fill:#D9D6FE;" d="M-5.9,215.4L526.4,73.9
		c0,0,37.4,49.4,49.4,88.1l-519,180.1l539-108.1l2.7,22.7l-587,160.1C11.4,416.8-31.3,322.1-5.9,215.4z"/>
	<g style="opacity:0.7;clip-path:url(#SVGID_00000164514528055980443450000004560787386417203112_);">
		
			<image style="overflow:visible;" width="1080" height="1079" xlink:href="431CE329.png"  transform="matrix(1 0 0 1 -284.3217 -283.4646)">
		</image>
	</g>
</g>
<path class="st4" d="M100,499c-48,0-87-39-87-87V100c0-48,39-87,87-87h312c48,0,87,39,87,87v312c0,48-39,87-87,87H100z"/>
<text transform="matrix(1 0 0 1 654.4286 -44.1378)" class="st6" style="font-family:'ArialMT'; font-size:200px;">؟</text>
<image style="overflow:visible;" width="3342" height="3342" xlink:href="../—Pngtree—brain logo vector_5182872.png"  transform="matrix(0.24 0 0 0.24 -248.8544 -970.5237)">
</image>
<image style="overflow:visible;" width="354" height="280" xlink:href="431CE329.jpg"  transform="matrix(1 0 0 1 860.5714 -421.2857)">
</image>
<g>
	<g>
		
			<image style="overflow:visible;opacity:0.33;" width="422" height="509" xlink:href="431CE32F.png"  transform="matrix(1 0 0 1 -805.4755 -607.3162)">
		</image>
		<g>
			
				<linearGradient id="SVGID_00000107565107573744081220000018196824502657187722_" gradientUnits="userSpaceOnUse" x1="-815.7" y1="-474.8668" x2="-492.2447" y2="-355.3242">
				<stop  offset="0" style="stop-color:#FACC47"/>
				<stop  offset="1" style="stop-color:#F79A33"/>
			</linearGradient>
			<path style="fill:url(#SVGID_00000107565107573744081220000018196824502657187722_);" d="M-591.8-161
				c-46.1-23.6-62.5-85.7-62.7-86.4c-1.3-5.1-5.8-8.7-11-8.8l-85.9-2.7c-32-4.1-36.8-26.9-37.4-31.2v-231.2
				c0-11.6,4.2-21.2,12.6-28.3c5.3-4.6,10.8-6.9,13-7.7l281.9-23.9c19.4,1.3,27.3,22.8,29,28.2l4.7,278.5
				c-1.4,12-6.9,20.3-16.9,25.3c-6.9,3.5-13.7,4.2-15.1,4.3l-94.6-3.3c-0.1,0-0.3,0-0.4,0c-5.2,0-9.9,3.5-11.3,8.6
				C-596.4-202.7-595.8-177.7-591.8-161z"/>
			<path class="st6" d="M-481.4-569.5c3.3,0.4,7.5,1.9,12,8.3c2.7,3.8,4.4,7.8,5.3,10.2l4.6,275.8c-1,7.2-3.9,11.9-9.5,15
				c-4.6,2.6-9.4,3.3-11.1,3.5l-93.8-3.3c-0.3,0-0.6,0-0.8,0c-10.5,0-19.7,7-22.6,17.1c-5.9,21.1-8.9,40.2-8.9,57.1
				c-6.5-6.2-12.5-13.8-18-22.6c-13.1-20.8-18.6-41.1-18.9-42c-2.5-10.2-11.5-17.3-22-17.6l-85.3-2.6c-10.3-1.4-17.8-5.2-22.3-11.4
				c-2.8-3.8-3.9-7.7-4.3-9.3v-230c0-8.1,2.5-14.1,8-19c3.2-2.9,6.6-4.6,8.5-5.5L-481.4-569.5 M-481.6-593l-284.2,24.1
				c0,0-34.9,10.1-34.9,47.6v231.9c0,0,3.4,36.9,48.3,42.2l86.5,2.7c0,0,23.5,92.5,97.9,103.2c0,0-28.1-18.8-6.7-95.2l95.2,3.4
				c0,0,39.5-1.3,43.6-40.9l-4.7-280.8C-440.7-554.8-450.1-591.7-481.6-593L-481.6-593z"/>
		</g>
	</g>
	<g>
		
			<image style="overflow:visible;opacity:0.33;" width="182" height="435" xlink:href="431CE32A.png"  transform="matrix(1 0 0 1 -703.007 -601.1498)">
		</image>
		<g>
			
				<text transform="matrix(1 0 0 1 -753.4355 -303.7191)" class="st6" style="font-family:'AraJozoor-Regular'; font-size:323.8119px;">?</text>
		</g>
	</g>
</g>
<path class="st7" d="M935.6,288.4c0,77.6-62.9,140.6-140.6,140.6s-140.6-62.9-140.6-140.6c0-38.8,15.7-74,41.2-99.4
	c25.4-25.4,60.6-41.2,99.4-41.2c38.8,0,74,15.7,99.4,41.2C919.8,214.5,935.6,249.6,935.6,288.4z"/>
<circle class="st6" cx="795" cy="98.1" r="27.4"/>
<g>
	<path class="st8" d="M695.6,189c25.4-25.4,60.6-41.2,99.4-41.2c89.7,0,107.4,98.9,71.1,140.6"/>
</g>
<g>
	
		<image style="overflow:visible;opacity:0.33;" width="227" height="469" xlink:href="431CE32B.png"  transform="matrix(1 0 0 1 700.6931 -851.4498)">
	</image>
	<g>
		<text transform="matrix(-1 0 0 1 1002.7737 -528.9335)" class="st6" style="font-family:'SomeTimeLater'; font-size:350.2683px;">?</text>
	</g>
</g>
<g>
	<path class="st6" d="M776.7,268.2c-5.6,5.4-8.4,12.5-8.4,21.5c0,7.4,1.3,13.5,3.8,18.4c2.6,4.8,6.9,9.4,13.1,13.6
		c13,9.1,22.1,18.6,27.3,28.6c5.2,9.9,7.6,22.1,7.3,36.6h-41c0.3-8.4-0.6-15.2-2.9-20.4c-2.3-5.2-6.4-10-12.5-14.5
		c-15.2-11.4-26-21.9-32.5-31.5c-6.5-9.6-9.7-19.8-9.7-30.8c0-20.4,7-36.6,21-48.6s33-18,57-18c23.8,0,42.6,6.7,56.4,20
		c13.8,13.3,21,31.8,21.7,55.4h-43.8c-0.5-13-3.5-22.6-9.1-28.9c-5.6-6.3-14-9.4-25.3-9.4C789.7,260.3,782.2,263,776.7,268.2z
		 M822.4,453.3h-46.2v-44h46.2V453.3z"/>
</g>
<g class="st9">
	
		<image style="display:inline;overflow:visible;opacity:0.3;" width="389" height="380" xlink:href="431CE326.png"  transform="matrix(1 0 0 1 41.1429 90)">
	</image>
	<g class="st10">
		<g>
			<g>
				
					<linearGradient id="SVGID_00000025412961546401429170000007248047833728259465_" gradientUnits="userSpaceOnUse" x1="26.9851" y1="404.5478" x2="336.7657" y2="191.6588">
					<stop  offset="0" style="stop-color:#FACC47"/>
					<stop  offset="1" style="stop-color:#F79A33"/>
				</linearGradient>
				<path style="fill:url(#SVGID_00000025412961546401429170000007248047833728259465_);" d="M423,256
					c0,99.3-80.5,179.9-179.9,179.9c-31.1,0-60.3-7.9-85.8-21.8L47.1,443.3l42.5-93.6c-16.7-27.3-26.3-59.4-26.3-93.8
					c0-49.7,20.1-94.6,52.7-127.2s77.5-52.7,127.2-52.7s94.6,20.1,127.2,52.7S423,206.3,423,256z"/>
			</g>
		</g>
	</g>
</g>
<g class="st9">
	
		<linearGradient id="SVGID_00000178887937195126309670000001647238210478144403_" gradientUnits="userSpaceOnUse" x1="167.2816" y1="335.0875" x2="-52.1209" y2="481.8559">
		<stop  offset="0" style="stop-color:#FCD42C"/>
		<stop  offset="1" style="stop-color:#F79A33"/>
	</linearGradient>
	<path style="display:inline;fill:url(#SVGID_00000178887937195126309670000001647238210478144403_);" d="M383.9,261.2
		c0,47.8-23,90.2-58.5,116.8c0,0,0,0,0,0c-17.1,15.9-43.9,19.8-46.5,54.5c-0.2,1.8-0.2,3.7-0.2,5.7v24.2h-81.8v-24.2
		c0-40.1-28.8-43.5-46.8-60.2c0,0,0,0,0,0c-35.5-26.6-58.4-69-58.4-116.8c0-40.3,8-70.4,34.5-96.9c7.9-7.9,17.6-15.6,28.3-22.5
		c0,0,0.1-0.1,0.1-0.1c16.7-10.7,36-19.5,55.4-24.1c11.2,11.2,26.6,18.2,43.7,18.2c16.4,0,31.4-6.5,42.5-17c0.4,0.1,0.7,0.2,1.1,0.3
		c7.6,2.3,15.2,5.7,22.9,10.5c9.6,6,19.4,14.4,29.6,25.9c0,0,0,0,0,0C374.5,183.5,383.9,220.9,383.9,261.2z"/>
	<polygon class="st13" points="261.1,511.9 214.1,511.9 206.5,494.7 268.7,494.7 	"/>
	<rect x="196.8" y="432.5" class="st14" width="81.6" height="62.2"/>
</g>
<g>
	
		<linearGradient id="SVGID_00000062902480076495653640000006228633759006461372_" gradientUnits="userSpaceOnUse" x1="-396.3434" y1="236.501" x2="86.9694" y2="405.4764">
		<stop  offset="0" style="stop-color:#F1635A"/>
		<stop  offset="0.4078" style="stop-color:#CF554D"/>
		<stop  offset="1" style="stop-color:#B14741"/>
	</linearGradient>
	<path style="fill:url(#SVGID_00000062902480076495653640000006228633759006461372_);" d="M-496.6,0h312c55.2,0,100,44.8,100,100
		v312c0,55.2-44.8,100-100,100h-312c-55.2,0-100-44.8-100-100V100C-596.6,44.8-551.8,0-496.6,0z"/>
</g>
<g>
	<defs>
		<path id="SVGID_00000099628914508692845370000000114238518408548234_" d="M-496.6,0h312c55.2,0,100,44.8,100,100v312
			c0,55.2-44.8,100-100,100h-312c-55.2,0-100-44.8-100-100V100C-596.6,44.8-551.8,0-496.6,0z"/>
	</defs>
	<clipPath id="SVGID_00000179610894647849455050000013920644517751511485_">
		<use xlink:href="#SVGID_00000099628914508692845370000000114238518408548234_"  style="overflow:visible;"/>
	</clipPath>
	<g style="opacity:0.3;clip-path:url(#SVGID_00000179610894647849455050000013920644517751511485_);">
		
			<image style="overflow:visible;" width="1079" height="1079" xlink:href="431CE327.png"  transform="matrix(1 0 0 1 -880.036 -283.4646)">
		</image>
	</g>
</g>
<path class="st17" d="M-496.6,499c-48,0-87-39-87-87V100c0-48,39-87,87-87h312c48,0,87,39,87,87v312c0,48-39,87-87,87H-496.6z"/>
<linearGradient id="SVGID_00000061441941822507536120000017071158947111356573_" gradientUnits="userSpaceOnUse" x1="-326.995" y1="111.8505" x2="-348.285" y2="126.0924">
	<stop  offset="0" style="stop-color:#FACC47"/>
	<stop  offset="1" style="stop-color:#F79A33"/>
</linearGradient>
<path style="fill:url(#SVGID_00000061441941822507536120000017071158947111356573_);" d="M-330.1,118c-6.5,0-12.7-1.4-18.2-4
	c1.1,0,2.2-0.1,3.4-0.1c11.2,0,21.7-0.2,31.9,0.6C-318.3,116.8-324.1,118-330.1,118z"/>
<g>
	
		<image style="overflow:visible;opacity:0.6;" width="258" height="357" xlink:href="431CE339.png"  transform="matrix(1 0 0 1 -462.5714 133)">
	</image>
	<g>
		<g>
			<g>
				<path class="st6" d="M-356.8,422.6v46.5h48.8v-46.5H-356.8z"/>
				<path class="st6" d="M-226.5,305.7h-69.8c-0.5-13.7-3.7-23.9-9.6-30.6c-5.9-6.6-14.8-9.9-26.8-9.9c-10,0-17.9,2.8-23.7,8.3
					c-5.9,5.7-8.9,13.3-8.9,22.8c0,7.8,1.4,14.3,4.1,19.4c2.7,5.1,7.3,9.9,13.8,14.4c13.7,9.6,23.4,19.7,28.8,30.2
					c5.5,10.5,8,23.4,7.7,38.7h-43.4c0.4-8.9-0.7-16.1-3.1-21.6c-2.4-5.5-6.8-10.6-13.2-15.3c-16-12-27.5-23.1-34.3-33.3
					c-6.9-10.1-10.3-21-10.3-32.5c0-21.6,7.4-38.7,22.2-51.3c14.8-12.7,34.9-19,60.2-19c25.2,0,45.1,7,59.6,21.2
					c0.6,0.6,1.1,1.1,1.7,1.7c0-0.1,0-0.3,0.1-0.4c2.4-14.7,0.5-31.1-6-45.3c-8-17.5-25.7-38.4-64.7-38.4c-33.8,0-65.5,13.1-89.4,37
					l-31.4-31.4c8.4-8.4,17.4-15.7,27.1-22.1c0,0,0.1-0.1,0.1-0.1c16-10.5,33.7-18.2,52.3-22.8c0,0,0,0,0,0
					c10.5,10.6,25.1,17.1,41.2,17.1c15.5,0,29.6-6.1,40.1-16c0,0,0,0,0,0c0.3,0.1,0.7,0.2,1,0.3c7.7,2.6,14.9,5.9,21.6,9.9
					c10.7,6.4,20.1,14.6,27.9,24.4c0,0,0,0,0,0c5.6,7,11.8,14.6,16.2,23.1C-203.7,245.8-226.5,305.6-226.5,305.7z"/>
			</g>
		</g>
	</g>
</g>
<g>
	
		<image style="overflow:visible;opacity:0.6;" width="96" height="96" xlink:href="B32CD4F2.png"  transform="matrix(1 0 0 1 -382.5714 50)">
	</image>
	<g>
		<g>
			<path class="st6" d="M-300.5,84.3c0,17.1-10.5,31.9-25.3,38.2c0,0,0,0,0,0c-5,2.1-10.4,3.3-16.1,3.3c-6.1,0-11.9-1.3-17.2-3.7
				c-14.3-6.5-24.2-21-24.2-37.7c0-22.8,18.6-41.4,41.4-41.4C-319.1,42.9-300.5,61.5-300.5,84.3z"/>
		</g>
	</g>
</g>
<g class="st9">
	
		<linearGradient id="SVGID_00000005970057274440150050000007417661771741019804_" gradientUnits="userSpaceOnUse" x1="187.3708" y1="236.501" x2="670.6837" y2="405.4764">
		<stop  offset="0" style="stop-color:#F1635A"/>
		<stop  offset="0.4078" style="stop-color:#CF554D"/>
		<stop  offset="1" style="stop-color:#B14741"/>
	</linearGradient>
	<path style="display:inline;fill:url(#SVGID_00000005970057274440150050000007417661771741019804_);" d="M87.1,0h312
		c55.2,0,100,44.8,100,100v312c0,55.2-44.8,100-100,100h-312c-55.2,0-100-44.8-100-100V100C-12.9,44.8,31.9,0,87.1,0z"/>
</g>
<g class="st9">
	<defs>
		<path id="SVGID_00000127761320945499265560000010197211227879314305_" d="M87.1,0h312c55.2,0,100,44.8,100,100v312
			c0,55.2-44.8,100-100,100h-312c-55.2,0-100-44.8-100-100V100C-12.9,44.8,31.9,0,87.1,0z"/>
	</defs>
	<clipPath id="SVGID_00000025433624773917669570000011139791858642513599_" class="st10">
		<use xlink:href="#SVGID_00000127761320945499265560000010197211227879314305_"  style="overflow:visible;"/>
	</clipPath>
	<g style="display:inline;opacity:0.3;clip-path:url(#SVGID_00000025433624773917669570000011139791858642513599_);">
		
			<image style="overflow:visible;" width="1079" height="1079" xlink:href="B32CD4F5.png"  transform="matrix(1 0 0 1 -296.3217 -283.4646)">
		</image>
	</g>
</g>
<path class="st21" d="M87.1,499c-48,0-87-39-87-87V100c0-48,39-87,87-87h312c48,0,87,39,87,87v312c0,48-39,87-87,87H87.1z"/>
<g>
	<g>
		<g>
			<g>
				<path class="st22" d="M-794,422.6v46.5h48.8v-46.5H-794z"/>
				<path class="st22" d="M-663.6,305.7h-69.8c-0.5-13.7-3.7-23.9-9.6-30.6c-5.9-6.6-14.8-9.9-26.8-9.9c-10,0-17.9,2.8-23.7,8.3
					c-5.9,5.7-8.9,13.3-8.9,22.8c0,7.8,1.4,14.3,4.1,19.4c2.7,5.1,7.3,9.9,13.8,14.4c13.7,9.6,23.4,19.7,28.8,30.2
					c5.5,10.5,8,23.4,7.7,38.7h-43.4c0.4-8.9-0.7-16.1-3.1-21.6c-2.4-5.5-6.8-10.6-13.2-15.3c-16-12-27.5-23.1-34.3-33.3
					c-6.9-10.1-10.3-21-10.3-32.5c0-21.6,7.4-38.7,22.2-51.3c14.8-12.7,34.9-19,60.2-19c25.2,0,45.1,7,59.6,21.2
					c0.6,0.6,1.1,1.1,1.7,1.7c0-0.1,0-0.3,0.1-0.4c2.4-14.7,0.5-31.1-6-45.3c-8-17.5-25.7-38.4-64.7-38.4c-33.8,0-65.5,13.1-89.4,37
					l-31.4-31.4c8.4-8.4,17.4-15.7,27.1-22.1c0,0,0.1-0.1,0.1-0.1c16-10.5,33.7-18.2,52.3-22.8c0,0,0,0,0,0
					c10.5,10.6,25.1,17.1,41.2,17.1c15.5,0,29.6-6.1,40.1-16c0,0,0,0,0,0c0.3,0.1,0.7,0.2,1,0.3c7.7,2.6,14.9,5.9,21.6,9.9
					c10.7,6.4,20.1,14.6,27.9,24.4c0,0,0,0,0,0c5.6,7,11.8,14.6,16.2,23.1C-640.8,245.8-663.6,305.6-663.6,305.7z"/>
			</g>
		</g>
	</g>
	<g>
		<g>
			<path class="st22" d="M-737.7,84.3c0,17.1-10.5,31.9-25.3,38.2c0,0,0,0,0,0c-5,2.1-10.4,3.3-16.1,3.3c-6.1,0-11.9-1.3-17.2-3.7
				c-14.3-6.5-24.2-21-24.2-37.7c0-22.8,18.6-41.4,41.4-41.4S-737.7,61.5-737.7,84.3z"/>
		</g>
	</g>
</g>
<g class="st9">
	<g class="st10">
		<path class="st6" d="M351,114.3c-4.9-4.9-4.9-12.8,0-17.7l37-37c4.9-4.9,12.8-4.9,17.7,0c4.9,4.9,4.9,12.8,0,17.7l-37,37
			C363.8,119.2,355.9,119.2,351,114.3z"/>
	</g>
	<g class="st10">
		<path class="st6" d="M397.4,209.9c-1.2-6.8,3.3-13.3,10.1-14.5l51.5-9.1c6.8-1.2,13.3,3.3,14.5,10.1c1.2,6.8-3.3,13.3-10.1,14.5
			l-51.5,9.1C405.1,221.3,398.6,216.7,397.4,209.9z"/>
	</g>
	<g class="st10">
		<path class="st6" d="M83.7,209.9c-1.2,6.8-7.7,11.3-14.5,10.1L17.7,211c-6.8-1.2-11.3-7.7-10.1-14.5s7.7-11.3,14.5-10.1l51.5,9.1
			C80.4,196.6,84.9,203.1,83.7,209.9z"/>
	</g>
	<g class="st10">
		<path class="st6" d="M100.3,340.2c3.5,6,1.4,13.6-4.6,17.1l-45.3,26.2c-6,3.5-13.6,1.4-17.1-4.6c-3.5-6-1.4-13.6,4.6-17.1
			l45.3-26.2C89.2,332.2,96.9,334.2,100.3,340.2z"/>
	</g>
	<g class="st10">
		<path class="st6" d="M380,340.2c-3.5,6-1.4,13.6,4.6,17.1l45.3,26.2c6,3.5,13.6,1.4,17.1-4.6c3.5-6,1.4-13.6-4.6-17.1l-45.3-26.2
			C391.1,332.2,383.4,334.2,380,340.2z"/>
	</g>
	<g class="st10">
		<path class="st6" d="M151.3,114.3c-4.9,4.9-12.8,4.9-17.7,0l-37-37c-4.9-4.9-4.9-12.8,0-17.7c4.9-4.9,12.8-4.9,17.7,0l37,37
			C156.2,101.6,156.2,109.5,151.3,114.3z"/>
	</g>
</g>
<image style="overflow:visible;" width="1500" height="1100" xlink:href="../../Downloads/stock-vector-trivia-word-with-speech-bubbles-puzzles-question-marks-lightbulb-and-award-icons-perfect-for-2642672965.jpg"  transform="matrix(0.4863 0 0 0.4863 1019 -44.224)">
</image>
<g class="st9">
	<g class="st10">
		<g>
			<path class="st23" d="M465.9,420.8c0,32-26,58-58,58H107.6c-32,0-87.2-8.3-87.2-58s0-329.6,0-329.6c0-32,23.8-77.9,55.9-77.9
				c0,0,253.3-4.3,285.4-4.3c116.2,0,112,81.3,113.1,143.7C475.9,215.1,465.9,420.8,465.9,420.8z"/>
		</g>
		<g>
			<g>
				<image style="overflow:visible;" width="513" height="512" xlink:href="B32CD4F6.png"  transform="matrix(1 0 0 1 -12.8571 0)">
				</image>
			</g>
			
				<radialGradient id="SVGID_00000063623391805931655590000015643229899382701979_" cx="-78.2533" cy="-162.3223" r="1292.1473" gradientUnits="userSpaceOnUse">
				<stop  offset="0" style="stop-color:#FFFFFF"/>
				<stop  offset="0.2327" style="stop-color:#FCFCFC"/>
				<stop  offset="0.4231" style="stop-color:#F2F2F2"/>
				<stop  offset="0.5987" style="stop-color:#E0E0E1"/>
				<stop  offset="0.7653" style="stop-color:#C8C8C9"/>
				<stop  offset="0.9241" style="stop-color:#AAAAAA"/>
				<stop  offset="1" style="stop-color:#989899"/>
			</radialGradient>
			<path style="fill:url(#SVGID_00000063623391805931655590000015643229899382701979_);" d="M487,436.4c0,35.1-28.4,63.5-63.5,63.5
				H62.8c-35.1,0-63.5-28.4-63.5-63.5V75.6c0-35.1,28.4-63.5,63.5-63.5h360.8c35.1,0,63.5,28.4,63.5,63.5V436.4z"/>
		</g>
	</g>
</g>
<image style="overflow:visible;" width="1024" height="1024" xlink:href="../../Downloads/ChatGPT Image Mar 6, 2026, 01_09_07 PM.png"  transform="matrix(1 0 0 1 -187.1402 949)">
</image>
<image style="overflow:visible;" width="1024" height="1024" xlink:href="../../Downloads/ChatGPT Image Mar 6, 2026, 01_09_07 PM.png"  transform="matrix(0.5778 0 0 0.5778 -39.8214 -13.9286)">
</image>
</svg>
