<?xml version="1.0" encoding="UTF-8"?>
<svg id="Layer_2" data-name="Layer 2" xmlns="http://www.w3.org/2000/svg" viewBox="0 0 148.68 114.63">
  <g id="svg2">
    <g id="puzzle-16">
      <path d="m148.68,56.87c.02,7.57-3.19,16.07-9.15,16.94-5.59.82-7.25-1.6-8.59-3.55-.74-1.08-1.67-2.42-3.35-2.34-1.87.1-3.12,1.86-5.21,5.77-3.53,6.58-.65,20.04,2.38,34.29.47,2.22.95,4.44,1.4,6.65-12.64-.12-25.51-2.14-32.3-5.95-3.21-1.81-3.91-2.71-4.06-2.98.21-.37,1.08-1.13,1.67-1.64,2.43-2.11,6.5-5.64,5.6-12.6-1.05-8.21-12.96-12.91-23.89-12.71-10.67.19-17.7,4.79-18.36,11.99-.69,7.55,2.29,11.69,4.26,14.42.7.97,1.49,2.06,1.39,2.48-.08.36-.73,1.44-4.95,3.71-5.89,3.18-17.69-.53-29.52-4.55h0c3.76-12.73,7.11-24.65,3.07-31.89-2.97-5.33-4.36-6.94-6.21-7.2-1.66-.23-2.79.89-3.69,1.79-1.38,1.38-3.1,3.09-7.57,2.7C5.33,71.65-.11,60.7,0,52.45c.05-3.89,1.25-8.59,6.68-8.92,6.24-.38,9.59,2.27,12.03,4.21,1.73,1.37,3.37,2.66,5.4,2.08,2.02-.58,3.43-2.72,5.39-8.18,3.12-8.7-.54-23.23-4.08-37.29-.36-1.41-.71-2.82-1.06-4.23,13.52-.52,27.23.68,34.61,3.85,3.8,1.63,4.63,2.86,4.8,3.45.31,1.16-1.12,3.11-2.64,5.19-2.67,3.64-6.33,8.64-5.34,15.52.88,6.16,6.64,9.73,15.35,9.57,10.83-.2,23.03-6.09,23.92-14.53.64-6.08-1.96-9.98-3.86-12.83-.96-1.44-1.79-2.69-1.61-3.41.11-.46.77-1.47,3.86-3.11,5.06-2.66,17.76,1.63,30.1,5.83-2.73,13.38-5.42,27.09-1.74,35.17,2.03,4.45,3.44,6.71,5.57,6.78,1.94.06,2.92-1.71,3.9-3.57,2-3.78,3.95-6.6,9.19-5.86,5.65.8,8.2,7.96,8.21,14.7Z" style="fill: #fff;"/>
    </g>
  </g>
</svg>