<?xml version="1.0" encoding="UTF-8"?>
<svg id="Layer_2" data-name="Layer 2" xmlns="http://www.w3.org/2000/svg" viewBox="0 0 151.91 149.27">
  <g id="svg2">
    <g id="puzzle-25">
      <path d="m151.9,69.59c-.27,8.96-5.07,19.69-10.84,20.08-4.46.31-7.52-1.55-10.23-3.18-2.35-1.43-4.59-2.78-7.09-2.04-2.04.61-3.7,2.44-5.38,5.94-2.62,5.43-4.05,16.94-4.15,29.38-8.76-1.67-16.49-2.25-21.64.64-4.83,2.71-6.84,4.49-7.38,6.58-.52,1.96.45,3.54,1.38,5.07,1.13,1.87,2.55,4.2,2.27,8.42-.33,5.12-8.23,8.54-15.35,8.78-6.03.19-12.76-1.72-13.54-7.68-.75-5.74,2.13-8.44,4.44-10.6,1.53-1.43,3.1-2.9,2.76-5-.33-2.04-2.31-3.64-7.29-5.9-6.47-2.93-16.91-4.44-27.82-4.77,3.79-11.29,6.34-21.33,3.17-26.96-5.37-9.55-11.13-7.03-16.71-4.58-3.15,1.38-6.42,2.76-10.34,2.79-4.84-.02-7.8-6.46-8.13-12.51-.31-5.74,1.65-12.71,8.24-13.46,5.47-.63,8.73.8,11.34,1.95,5.66,2.48,8.45,1.75,12.82-7.33,2.42-5.02,3.83-12.19,4.39-20.05,8.59-.7,16.49-2.35,21.65-5.07,5.44-2.87,7.35-4.41,7.88-6.32.46-1.69-.35-3.02-1.14-4.3-1.12-1.84-2.66-4.35-1.92-9.81.9-6.6,7.78-9.63,13.79-9.66h.07c5.3,0,10.96,2.4,11.74,7.76.75,5.21-.82,7.44-2.09,9.23-.82,1.16-1.75,2.47-1.36,4.17.41,1.81,2.07,3.27,6.58,5.78,4.93,2.74,13.38,1.76,23.1-.32,1.08,13.07,3.75,26.06,6.57,33.57,1.74,4.61,3.31,6.66,5.42,7.08,2.48.48,4.29-1.46,6.38-3.71,2.79-2.98,6.25-6.7,12.04-5.94,6.06.8,6.48,8.64,6.37,11.97Z" style="fill: #fff;"/>
    </g>
  </g>
</svg>