<?xml version="1.0" encoding="UTF-8"?>
<svg id="Layer_2" data-name="Layer 2" xmlns="http://www.w3.org/2000/svg" viewBox="0 0 151.62 115.43">
  <g id="svg2">
    <g id="puzzle-10">
      <path d="m143.96,70.82c-5.08.73-7.79-1.41-10.18-3.3-1.74-1.37-3.54-2.79-5.83-2.33-2.15.44-3.98,2.34-6.33,6.58-4.21,7.61-.28,21.29,3.88,35.77.74,2.59,1.49,5.18,2.19,7.75h0c-13.67.55-27.21-.6-32.99-3.36-5.28-2.52-4.99-3.15-3.39-6.64,1.24-2.69,2.94-6.37,2.43-11.88-.78-8.43-12.13-14.74-21.75-14.75-7.64.02-12.61,3.87-13.23,10.39-.72,7.44,2.69,12.18,4.95,15.32,1.01,1.41,2.06,2.86,1.88,3.49-.12.4-.86,1.51-5.33,3.36-6.8,2.81-20.1-1.32-32.53-5.51,2.63-13.1,4.75-25.22.9-32.1-2.34-4.18-4.3-6.15-6.54-6.58-2.51-.48-4.43,1.07-6.46,2.72-2.31,1.88-4.97,4-9.16,3.95-4.24-.06-6.46-6.34-6.47-12.52,0-7.76,3.29-16.16,10.54-16.28,5.85-.07,8.96,1.5,11.22,2.66,1.63.83,3.18,1.63,4.89.95,2.06-.81,3.24-3.18,5.51-9.44,3.04-8.4-.83-20.42-4.57-32.04-.59-1.83-1.19-3.67-1.75-5.5,13.23.46,26.4,2.53,33.21,6.04,3.59,1.85,4.87,2.78,5.3,3.22-.18.25-.49.61-.73.89-1.86,2.13-4.96,5.69-4.39,13.6.53,7.33,6.88,11.8,16.67,11.74,9.67-.08,20.36-5.04,20.78-12.88.3-5.57-2.28-9.4-4.17-12.2-1.34-1.99-2.15-3.26-1.91-4.24.18-.76,1.12-2.08,4.6-4.03,4.31-2.42,11.26-3.52,19.14-3.67-.48,15.8,1.42,34.36,5.45,44.32,2.13,5.24,3.43,7.65,5.53,8.07,1.83.35,3.1-.95,4.33-2.22,2.02-2.07,4.79-4.9,11.28-4.78,6.84.13,10.28,6.33,10.65,12.42.37,5.87-2.13,12.22-7.62,13.01Z" style="fill: #fff;"/>
    </g>
  </g>
</svg>